<?xml version="1.0" encoding="UTF-8"?>
<svg width="496px" height="496px" viewBox="0 0 496 496" version="1.1" xmlns="http://www.w3.org/2000/svg" xmlns:xlink="http://www.w3.org/1999/xlink">
    <!-- Generator: Sketch 52.4 (67378) - http://www.bohemiancoding.com/sketch -->
    <title>Shape</title>
    <desc>Created with Sketch.</desc>
    <g id="Page-1" stroke="none" stroke-width="1" fill="none" fill-rule="evenodd">
        <g id="check-circle-regular" fill="#74BE37" fill-rule="nonzero">
            <path d="M248,0 C111.033,0 0,111.033 0,248 C0,384.967 111.033,496 248,496 C384.967,496 496,384.967 496,248 C496,111.033 384.967,0 248,0 Z M248,16 C376.21712,16 480,119.76316 480,248 C480,376.21712 376.23684,480 248,480 C119.78288,480 16,376.23684 16,248 C16,119.78288 119.76316,16 248,16 Z M388.204,178.267 L365.668,155.549 C361.001,150.844 353.403,150.813 348.698,155.481 L207.346,295.697 L147.554,235.42 C142.887,230.715 135.289,230.684 130.584,235.351 L107.865,257.887 C103.16,262.554 103.129,270.152 107.797,274.858 L198.578,366.374 C203.245,371.079 210.843,371.11 215.548,366.442 L388.137,195.238 C392.841,190.57 392.871,182.972 388.204,178.267 Z" id="Shape"></path>
        </g>
    </g>
</svg>