<?xml version="1.0" encoding="UTF-8"?>
<svg width="46px" height="46px" viewBox="0 0 46 46" version="1.1" xmlns="http://www.w3.org/2000/svg" xmlns:xlink="http://www.w3.org/1999/xlink">
    <!-- Generator: Sketch 53.2 (72643) - https://sketchapp.com -->
    <title>Shape</title>
    <desc>Created with Sketch.</desc>
    <g id="Page-1" stroke="none" stroke-width="1" fill="none" fill-rule="evenodd">
        <g id="Desktop-HD-|-Selección" transform="translate(-160.000000, -1686.000000)" fill="#EA474B" fill-rule="nonzero">
            <g id="integradores" transform="translate(135.000000, 1556.000000)">
                <g id="Tit">
                    <g id="disclaimer" transform="translate(0.000000, 113.000000)">
                        <path d="M48,17 C35.2981954,17 25,27.2981954 25,40 C25,52.7032518 35.2981954,63 48,63 C60.7032518,63 71,52.7046991 71,40 C71,27.2981954 60.703091,17 48,17 Z M48,58.6874296 C37.6788089,58.6874296 29.3125704,50.3211911 29.3125704,40 C29.3125704,29.6788089 37.6788089,21.3125704 48,21.3125704 C58.3211911,21.3125704 66.6874296,29.6788089 66.6874296,40 C66.6874296,50.3211911 58.3211911,58.6874296 48,58.6874296 Z M48.0014473,27.0868927 C46.3541219,27.0868927 45.107693,27.9465765 45.107693,29.3351605 L45.107693,42.0713781 C45.107693,43.4614094 46.3539611,44.3181987 48.0014473,44.3181987 C49.6085704,44.3181987 50.8952016,43.425549 50.8952016,42.0713781 L50.8952016,29.3351605 C50.8950408,27.9795423 49.6085704,27.0868927 48.0014473,27.0868927 Z M48.0014473,47.1875101 C46.4187671,47.1875101 45.1306886,48.4755885 45.1306886,50.0595552 C45.1306886,51.6407881 46.4187671,52.9288666 48.0014473,52.9288666 C49.5841275,52.9288666 50.8707587,51.6407881 50.8707587,50.0595552 C50.8705979,48.4754277 49.5841275,47.1875101 48.0014473,47.1875101 Z" id="Shape" transform="translate(48.000000, 40.000000) rotate(-180.000000) translate(-48.000000, -40.000000) "></path>
                    </g>
                </g>
            </g>
        </g>
    </g>
</svg>